<?xml version="1.0" encoding="UTF-8" standalone="no"?>
<!-- Created with Inkscape (http://www.inkscape.org/) -->
<svg
   xmlns:dc="http://purl.org/dc/elements/1.1/"
   xmlns:cc="http://creativecommons.org/ns#"
   xmlns:rdf="http://www.w3.org/1999/02/22-rdf-syntax-ns#"
   xmlns:svg="http://www.w3.org/2000/svg"
   xmlns="http://www.w3.org/2000/svg"
   xmlns:xlink="http://www.w3.org/1999/xlink"
   xmlns:sodipodi="http://sodipodi.sourceforge.net/DTD/sodipodi-0.dtd"
   xmlns:inkscape="http://www.inkscape.org/namespaces/inkscape"
   width="188.56"
   height="247.39999"
   id="svg3494"
   sodipodi:version="0.32"
   inkscape:version="0.46"
   sodipodi:docname="becker.svg"
   inkscape:output_extension="org.inkscape.output.svg.inkscape"
   version="1.0">
  <defs
     id="defs3496">
    <linearGradient
       id="linearGradient4070">
      <stop
         style="stop-color:#83b67d;stop-opacity:1;"
         offset="0"
         id="stop4072" />
      <stop
         style="stop-color:#bbd7b8;stop-opacity:0;"
         offset="1"
         id="stop4074" />
    </linearGradient>
    <linearGradient
       id="linearGradient4062">
      <stop
         style="stop-color:#61a45e;stop-opacity:1;"
         offset="0"
         id="stop4064" />
      <stop
         style="stop-color:#aed0ac;stop-opacity:0;"
         offset="1"
         id="stop4066" />
    </linearGradient>
    <inkscape:perspective
       sodipodi:type="inkscape:persp3d"
       inkscape:vp_x="0 : 526.18109 : 1"
       inkscape:vp_y="0 : 1000 : 0"
       inkscape:vp_z="744.09448 : 526.18109 : 1"
       inkscape:persp3d-origin="372.04724 : 350.78739 : 1"
       id="perspective3502" />
    <inkscape:perspective
       id="perspective3511"
       inkscape:persp3d-origin="372.04724 : 350.78739 : 1"
       inkscape:vp_z="744.09448 : 526.18109 : 1"
       inkscape:vp_y="0 : 1000 : 0"
       inkscape:vp_x="0 : 526.18109 : 1"
       sodipodi:type="inkscape:persp3d" />
    <linearGradient
       inkscape:collect="always"
       xlink:href="#linearGradient4070"
       id="linearGradient4076"
       x1="350.3992"
       y1="185.03763"
       x2="350.64667"
       y2="87.270035"
       gradientUnits="userSpaceOnUse"
       gradientTransform="translate(-210.73672,100.16274)" />
    <linearGradient
       inkscape:collect="always"
       xlink:href="#linearGradient4062"
       id="linearGradient4126"
       x1="300.50916"
       y1="549.14795"
       x2="300.53"
       y2="524.86218"
       gradientUnits="userSpaceOnUse" />
    <linearGradient
       inkscape:collect="always"
       xlink:href="#linearGradient4062"
       id="linearGradient4134"
       x1="294.97086"
       y1="549.14795"
       x2="295.27896"
       y2="524.86218"
       gradientUnits="userSpaceOnUse" />
    <linearGradient
       inkscape:collect="always"
       xlink:href="#linearGradient4062"
       id="linearGradient4142"
       x1="304.46829"
       y1="549.14795"
       x2="304.37906"
       y2="524.86218"
       gradientUnits="userSpaceOnUse" />
    <linearGradient
       inkscape:collect="always"
       xlink:href="#linearGradient4062"
       id="linearGradient4150"
       x1="304.80826"
       y1="549.14795"
       x2="304.73199"
       y2="524.86218"
       gradientUnits="userSpaceOnUse" />
    <linearGradient
       inkscape:collect="always"
       xlink:href="#linearGradient4062"
       id="linearGradient4164"
       gradientUnits="userSpaceOnUse"
       x1="300.50916"
       y1="549.14795"
       x2="300.53"
       y2="524.86218" />
    <linearGradient
       inkscape:collect="always"
       xlink:href="#linearGradient4062"
       id="linearGradient4166"
       gradientUnits="userSpaceOnUse"
       x1="294.97086"
       y1="549.14795"
       x2="295.27896"
       y2="524.86218" />
    <linearGradient
       inkscape:collect="always"
       xlink:href="#linearGradient4062"
       id="linearGradient4168"
       gradientUnits="userSpaceOnUse"
       x1="304.46829"
       y1="549.14795"
       x2="304.37906"
       y2="524.86218" />
    <linearGradient
       inkscape:collect="always"
       xlink:href="#linearGradient4062"
       id="linearGradient4170"
       gradientUnits="userSpaceOnUse"
       x1="304.80826"
       y1="549.14795"
       x2="304.73199"
       y2="524.86218" />
    <filter
       inkscape:collect="always"
       id="filter4218">
      <feGaussianBlur
         inkscape:collect="always"
         stdDeviation="3.1828021"
         id="feGaussianBlur4220" />
    </filter>
    <linearGradient
       inkscape:collect="always"
       xlink:href="#linearGradient4070"
       id="linearGradient4240"
       gradientUnits="userSpaceOnUse"
       gradientTransform="translate(-210.73672,100.16274)"
       x1="350.3992"
       y1="185.03763"
       x2="350.64667"
       y2="87.270035" />
    <linearGradient
       inkscape:collect="always"
       xlink:href="#linearGradient4062"
       id="linearGradient4242"
       gradientUnits="userSpaceOnUse"
       x1="300.50916"
       y1="549.14795"
       x2="300.53"
       y2="524.86218" />
    <linearGradient
       inkscape:collect="always"
       xlink:href="#linearGradient4062"
       id="linearGradient4244"
       gradientUnits="userSpaceOnUse"
       x1="294.97086"
       y1="549.14795"
       x2="295.27896"
       y2="524.86218" />
    <linearGradient
       inkscape:collect="always"
       xlink:href="#linearGradient4062"
       id="linearGradient4246"
       gradientUnits="userSpaceOnUse"
       x1="304.46829"
       y1="549.14795"
       x2="304.37906"
       y2="524.86218" />
    <linearGradient
       inkscape:collect="always"
       xlink:href="#linearGradient4062"
       id="linearGradient4248"
       gradientUnits="userSpaceOnUse"
       x1="304.80826"
       y1="549.14795"
       x2="304.73199"
       y2="524.86218" />
  </defs>
  <sodipodi:namedview
     id="base"
     pagecolor="#ffffff"
     bordercolor="#666666"
     borderopacity="1.0"
     inkscape:pageopacity="0.0"
     inkscape:pageshadow="2"
     inkscape:zoom="0.7"
     inkscape:cx="120.28362"
     inkscape:cy="17.100116"
     inkscape:document-units="px"
     inkscape:current-layer="layer1"
     showgrid="false"
     inkscape:window-width="1280"
     inkscape:window-height="975"
     inkscape:window-x="-4"
     inkscape:window-y="-4" />
  <metadata
     id="metadata3499">
    <rdf:RDF>
      <cc:Work
         rdf:about="">
        <dc:format>image/svg+xml</dc:format>
        <dc:type
           rdf:resource="http://purl.org/dc/dcmitype/StillImage" />
      </cc:Work>
    </rdf:RDF>
  </metadata>
  <g
     inkscape:label="Camada 1"
     inkscape:groupmode="layer"
     id="layer1"
     transform="translate(-5.2746644,-5.28977)">
    <g
       id="g4222"
       transform="translate(-35.142857,-40)">
      <path
         sodipodi:nodetypes="cssssc"
         id="path4172"
         d="M 174.89973,61.466617 C 174.89973,61.466617 164.76669,68.865907 162.75687,73.609477 C 157.57316,85.844067 159.43266,104.86659 162.04259,117.89519 C 170.35496,159.38992 219.24983,204.86895 218.47116,247.18091 C 218.29834,256.5719 212.83912,270.37655 204.89973,275.39519 C 186.60517,286.95952 132.04258,284.32376 132.04258,284.32376"
         style="fill:none;fill-rule:evenodd;stroke:#6e6e6e;stroke-width:5;stroke-linecap:butt;stroke-linejoin:miter;stroke-miterlimit:4;stroke-dasharray:none;stroke-opacity:1;filter:url(#filter4218)" />
      <path
         sodipodi:nodetypes="ccccccc"
         id="path4032"
         d="M 66.71243,187.43278 L 54.56958,209.57564 C 48.48205,230.46689 35.08777,250.62746 55.99815,274.2185 C 82.60397,289.87534 175.58564,287.01202 201.35529,276.7185 C 224.47052,257.38222 216.00885,239.06454 210.641,220.64707 C 206.8339,210.41019 200.48876,198.90428 194.92672,187.78993 L 66.71243,187.43278 z"
         style="fill:#bbd7b8;fill-opacity:1;fill-rule:evenodd;stroke:none;stroke-width:1px;stroke-linecap:butt;stroke-linejoin:miter;stroke-opacity:1" />
      <path
         id="path4030"
         d="M 67.86068,188.86135 L 194.49276,188.86135"
         style="fill:none;fill-rule:evenodd;stroke:#aed0ac;stroke-width:5;stroke-linecap:butt;stroke-linejoin:miter;stroke-miterlimit:4;stroke-dasharray:none;stroke-opacity:1" />
      <path
         sodipodi:nodetypes="ccccccc"
         id="path4060"
         d="M 66.71243,187.43278 L 54.56958,209.57564 C 48.48205,230.46689 35.08777,250.62746 55.99815,274.2185 C 82.60397,289.87534 175.58563,287.01202 201.35528,276.7185 C 224.47051,257.38222 216.00884,239.06454 210.64099,220.64707 C 206.83389,210.41019 200.48875,198.90428 194.92671,187.78993 L 66.71243,187.43278 z"
         style="fill:url(#linearGradient4240);fill-opacity:1;fill-rule:evenodd;stroke:none;stroke-width:1px;stroke-linecap:butt;stroke-linejoin:miter;stroke-opacity:1" />
      <path
         sodipodi:nodetypes="cssssc"
         id="path3517"
         d="M 88.49815,62.07564 C 88.49815,62.07564 98.63119,69.47493 100.64101,74.2185 C 105.82472,86.45309 103.96522,105.47561 101.35529,118.50421 C 93.04292,159.99894 44.14805,205.47797 44.92672,247.78993 C 45.09954,257.18092 50.55876,270.98557 58.49815,276.00421 C 76.79271,287.56854 131.3553,284.93278 131.3553,284.93278"
         style="fill:none;fill-rule:evenodd;stroke:#000000;stroke-width:5;stroke-linecap:butt;stroke-linejoin:miter;stroke-miterlimit:4;stroke-dasharray:none;stroke-opacity:1" />
      <path
         sodipodi:nodetypes="cssssc"
         id="path4028"
         d="M 173.27927,62.07564 C 173.27927,62.07564 163.14623,69.47493 161.13641,74.2185 C 155.9527,86.45309 157.8122,105.47561 160.42213,118.50421 C 168.7345,159.99894 217.62937,205.47797 216.8507,247.78993 C 216.67788,257.18092 211.21866,270.98557 203.27927,276.00421 C 184.98471,287.56854 130.42212,284.93278 130.42212,284.93278"
         style="fill:none;fill-rule:evenodd;stroke:#000000;stroke-width:5;stroke-linecap:butt;stroke-linejoin:miter;stroke-miterlimit:4;stroke-dasharray:none;stroke-opacity:1" />
      <g
         id="g4158">
        <path
           sodipodi:type="arc"
           style="opacity:0.83805668;fill:#bbd7b8;fill-opacity:1;fill-rule:evenodd;stroke:none;stroke-width:5;stroke-linejoin:round;stroke-miterlimit:4;stroke-dasharray:none;stroke-opacity:1"
           id="path4034"
           sodipodi:cx="297.67856"
           sodipodi:cy="537.00507"
           sodipodi:rx="12.321428"
           sodipodi:ry="12.142858"
           d="M 309.99999,537.00507 A 12.321428,12.142858 0 1 1 285.35713,537.00507 A 12.321428,12.142858 0 1 1 309.99999,537.00507 z"
           transform="matrix(0.6666783,0,0,0.6764823,-57.81469,-200.48462)" />
        <path
           sodipodi:type="arc"
           style="opacity:0.83805668;fill:#bbd7b8;fill-opacity:1;fill-rule:evenodd;stroke:none;stroke-width:5;stroke-linejoin:round;stroke-miterlimit:4;stroke-dasharray:none;stroke-opacity:1"
           id="path4036"
           sodipodi:cx="297.67856"
           sodipodi:cy="537.00507"
           sodipodi:rx="12.321428"
           sodipodi:ry="12.142858"
           d="M 309.99999,537.00507 A 12.321428,12.142858 0 1 1 285.35713,537.00507 A 12.321428,12.142858 0 1 1 309.99999,537.00507 z"
           transform="matrix(0.8405913,0,0,0.8529529,-124.94216,-327.39295)" />
        <path
           sodipodi:type="arc"
           style="opacity:0.83805668;fill:#bbd7b8;fill-opacity:1;fill-rule:evenodd;stroke:none;stroke-width:5;stroke-linejoin:round;stroke-miterlimit:4;stroke-dasharray:none;stroke-opacity:1"
           id="path4038"
           sodipodi:cx="297.67856"
           sodipodi:cy="537.00507"
           sodipodi:rx="12.321428"
           sodipodi:ry="12.142858"
           d="M 309.99999,537.00507 A 12.321428,12.142858 0 1 1 285.35713,537.00507 A 12.321428,12.142858 0 1 1 309.99999,537.00507 z"
           transform="matrix(0.8985624,0,0,0.9117764,-128.9846,-393.26718)" />
        <path
           sodipodi:type="arc"
           style="opacity:0.83805668;fill:#bbd7b8;fill-opacity:1;fill-rule:evenodd;stroke:none;stroke-width:5;stroke-linejoin:round;stroke-miterlimit:4;stroke-dasharray:none;stroke-opacity:1"
           id="path4040"
           sodipodi:cx="297.67856"
           sodipodi:cy="537.00507"
           sodipodi:rx="12.321428"
           sodipodi:ry="12.142858"
           d="M 309.99999,537.00507 A 12.321428,12.142858 0 1 1 285.35713,537.00507 A 12.321428,12.142858 0 1 1 309.99999,537.00507 z"
           transform="matrix(1.2463885,0,0,1.2647175,-247.31069,-618.51265)" />
      </g>
      <g
         transform="translate(96.13248,17.19751)"
         id="g4152">
        <path
           sodipodi:type="arc"
           style="opacity:0.83805668;fill:url(#linearGradient4242);fill-opacity:1;fill-rule:evenodd;stroke:none;stroke-width:5;stroke-linejoin:round;stroke-miterlimit:4;stroke-dasharray:none;stroke-opacity:1"
           id="path4098"
           sodipodi:cx="297.67856"
           sodipodi:cy="537.00507"
           sodipodi:rx="12.321428"
           sodipodi:ry="12.142858"
           d="M 309.99999,537.00507 A 12.321428,12.142858 0 1 1 285.35713,537.00507 A 12.321428,12.142858 0 1 1 309.99999,537.00507 z"
           transform="matrix(0.6666783,0,0,0.6764823,-153.94717,-217.68213)" />
        <path
           sodipodi:type="arc"
           style="opacity:0.83805668;fill:url(#linearGradient4244);fill-opacity:1;fill-rule:evenodd;stroke:none;stroke-width:5;stroke-linejoin:round;stroke-miterlimit:4;stroke-dasharray:none;stroke-opacity:1"
           id="path4100"
           sodipodi:cx="297.67856"
           sodipodi:cy="537.00507"
           sodipodi:rx="12.321428"
           sodipodi:ry="12.142858"
           d="M 309.99999,537.00507 A 12.321428,12.142858 0 1 1 285.35713,537.00507 A 12.321428,12.142858 0 1 1 309.99999,537.00507 z"
           transform="matrix(0.8405913,0,0,0.8529529,-221.07464,-344.59046)" />
        <path
           sodipodi:type="arc"
           style="opacity:0.83805668;fill:url(#linearGradient4246);fill-opacity:1;fill-rule:evenodd;stroke:none;stroke-width:5;stroke-linejoin:round;stroke-miterlimit:4;stroke-dasharray:none;stroke-opacity:1"
           id="path4102"
           sodipodi:cx="297.67856"
           sodipodi:cy="537.00507"
           sodipodi:rx="12.321428"
           sodipodi:ry="12.142858"
           d="M 309.99999,537.00507 A 12.321428,12.142858 0 1 1 285.35713,537.00507 A 12.321428,12.142858 0 1 1 309.99999,537.00507 z"
           transform="matrix(0.8985624,0,0,0.9117764,-225.11708,-410.46469)" />
        <path
           sodipodi:type="arc"
           style="opacity:0.83805668;fill:url(#linearGradient4248);fill-opacity:1;fill-rule:evenodd;stroke:none;stroke-width:5;stroke-linejoin:round;stroke-miterlimit:4;stroke-dasharray:none;stroke-opacity:1"
           id="path4104"
           sodipodi:cx="297.67856"
           sodipodi:cy="537.00507"
           sodipodi:rx="12.321428"
           sodipodi:ry="12.142858"
           d="M 309.99999,537.00507 A 12.321428,12.142858 0 1 1 285.35713,537.00507 A 12.321428,12.142858 0 1 1 309.99999,537.00507 z"
           transform="matrix(1.2463885,0,0,1.2647175,-343.44317,-635.71016)" />
      </g>
    </g>
  </g>
</svg>
